<?xml version="1.0" encoding="UTF-8" standalone="no"?>
<!DOCTYPE svg PUBLIC "-//W3C//DTD SVG 1.1//EN" "http://www.w3.org/Graphics/SVG/1.1/DTD/svg11.dtd">
<svg width="100%" height="100%" viewBox="0 0 447 113" version="1.1" xmlns="http://www.w3.org/2000/svg" xmlns:xlink="http://www.w3.org/1999/xlink" xml:space="preserve" xmlns:serif="http://www.serif.com/" style="fill-rule:evenodd;clip-rule:evenodd;stroke-linejoin:round;stroke-miterlimit:2;">
    <rect id="wordmark" x="0" y="0" width="446.961" height="112.392" style="fill:none;"/>
    <clipPath id="_clip1">
        <rect x="0" y="0" width="446.961" height="112.392"/>
    </clipPath>
    <g clip-path="url(#_clip1)">
        <path d="M146.598,102.418L156.414,102.418L178.158,43.179L165.488,43.179L151.62,84.669L151.392,84.669L137.467,43.179L124.854,43.179L146.598,102.418Z" style="fill:rgb(80,15,166);fill-rule:nonzero;"/>
        <path d="M230.378,77.307L230.378,67.491C230.301,59.691 227.885,53.566 223.13,49.114C218.45,44.739 212.724,42.513 205.951,42.437C203.136,42.437 200.282,42.951 197.391,43.978C194.461,45.005 191.817,46.679 189.458,49C187.137,51.283 185.235,54.403 183.751,58.36C182.267,62.241 181.525,67.111 181.525,72.97C181.525,79.057 182.381,84.004 184.093,87.808C185.653,91.765 187.689,94.847 190.2,97.054C191.493,98.119 192.882,99.013 194.366,99.736C195.774,100.573 197.22,101.239 198.703,101.733C201.671,102.647 204.715,103.103 207.835,103.103C216.015,103.179 223.13,99.983 229.179,93.515L220.561,86.153C216.757,89.996 212.438,91.917 207.606,91.917C203.459,91.917 200.111,90.662 197.562,88.151C194.823,85.678 193.453,82.063 193.453,77.307L230.378,77.307ZM193.453,67.491C193.681,62.887 194.918,59.406 197.162,57.047C199.445,54.802 202.375,53.68 205.951,53.68C209.528,53.68 212.457,54.802 214.74,57.047C217.061,59.406 218.298,62.887 218.45,67.491L193.453,67.491Z" style="fill:rgb(80,15,166);fill-rule:nonzero;"/>
        <path d="M242.876,102.418L254.804,102.418L254.804,66.749C254.88,62.412 256.135,59.273 258.57,57.333C260.739,55.354 263.345,54.365 266.389,54.365C269.09,54.365 271.697,55.354 274.208,57.333L282.883,47.003C279.344,44.035 275.197,42.513 270.441,42.437C264.087,42.437 258.951,44.777 255.032,49.457L254.804,49.457L254.804,43.179L242.876,43.179L242.876,102.418Z" style="fill:rgb(80,15,166);fill-rule:nonzero;"/>
        <path d="M302.058,31.137L320.264,31.137C323.688,31.061 326.694,31.841 329.281,33.477C330.993,34.466 332.325,35.817 333.276,37.529C334.189,39.431 334.646,41.771 334.646,44.549C334.646,47.897 333.523,50.941 331.278,53.68C328.919,56.496 325.4,57.941 320.72,58.017L302.058,58.017L302.058,31.137ZM289.446,102.418L302.058,102.418L302.058,69.945L321.234,69.945C329.795,69.793 336.301,67.054 340.752,61.727C345.089,56.667 347.258,51.055 347.258,44.891C347.258,40.326 346.402,36.369 344.69,33.02C343.054,29.558 340.923,26.895 338.298,25.031C335.178,22.558 332.096,20.922 329.053,20.123C326.009,19.514 322.851,19.209 319.579,19.209L289.446,19.209L289.446,102.418Z" style="fill:rgb(80,15,166);fill-rule:nonzero;"/>
        <path d="M357.645,102.418L369.573,102.418L369.573,66.749C369.649,62.412 370.904,59.273 373.339,57.333C375.508,55.354 378.114,54.365 381.158,54.365C383.859,54.365 386.466,55.354 388.977,57.333L397.652,47.003C394.113,44.035 389.966,42.513 385.21,42.437C378.856,42.437 373.72,44.777 369.801,49.457L369.573,49.457L369.573,43.179L357.645,43.179L357.645,102.418Z" style="fill:rgb(80,15,166);fill-rule:nonzero;"/>
        <path d="M398.108,72.742C398.108,78.981 398.622,83.737 399.649,87.009C400.714,90.281 402.35,93.116 404.557,95.513C406.193,97.377 408.476,99.051 411.406,100.535C414.297,102.171 418.007,103.027 422.534,103.103C427.214,103.027 431,102.171 433.891,100.535C435.451,99.85 436.726,99.032 437.715,98.081C438.818,97.244 439.751,96.388 440.512,95.513C442.87,93.116 444.545,90.281 445.534,87.009C446.485,83.737 446.961,78.981 446.961,72.742C446.961,66.502 446.485,61.708 445.534,58.36C444.545,55.088 442.87,52.329 440.512,50.085C438.952,48.106 436.745,46.337 433.891,44.777C431,43.293 427.214,42.513 422.534,42.437C418.007,42.513 414.297,43.293 411.406,44.777C408.476,46.337 406.193,48.106 404.557,50.085C402.35,52.329 400.714,55.088 399.649,58.36C398.622,61.708 398.108,66.502 398.108,72.742ZM435.033,72.856C435.033,76.889 434.843,79.856 434.462,81.759C434.082,83.699 433.302,85.411 432.122,86.895C431.247,88.037 429.953,89.045 428.241,89.92C426.605,90.757 424.703,91.175 422.534,91.175C420.518,91.175 418.654,90.757 416.941,89.92C415.305,89.045 413.974,88.037 412.946,86.895C411.919,85.411 411.177,83.699 410.721,81.759C410.264,79.856 410.036,76.851 410.036,72.742C410.036,68.594 410.264,65.551 410.721,63.61C411.177,61.746 411.919,60.11 412.946,58.702C413.974,57.371 415.305,56.324 416.941,55.563C418.654,54.764 420.518,54.365 422.534,54.365C424.703,54.365 426.605,54.764 428.241,55.563C429.953,56.324 431.247,57.371 432.122,58.702C433.302,60.11 434.082,61.746 434.462,63.61C434.843,65.551 435.033,68.633 435.033,72.856Z" style="fill:rgb(80,15,166);fill-rule:nonzero;"/>
        <g>
            <path d="M86.112,104.356C77.453,109.836 67.191,113 56.196,113C25.181,113 0,87.819 0,56.804C0,25.789 25.181,0.608 56.196,0.608C67.191,0.608 77.453,3.772 86.112,9.252C85.203,9.194 84.286,9.168 83.364,9.168C57.072,9.168 35.727,30.513 35.727,56.804C35.727,83.095 57.072,104.44 83.364,104.44C84.286,104.44 85.203,104.414 86.112,104.356ZM60.945,76.236C70.284,74.702 77.409,66.579 77.409,56.804C77.409,47.029 70.284,38.906 60.945,37.372C66.328,31.259 74.213,27.403 82.991,27.403C99.218,27.403 112.392,40.577 112.392,56.804C112.392,73.031 99.218,86.205 82.991,86.205C74.213,86.205 66.328,82.349 60.945,76.236Z" style="fill:url(#_Linear2);"/>
        </g>
    </g>
    <defs>
        <linearGradient id="_Linear2" x1="0" y1="0" x2="1" y2="0" gradientUnits="userSpaceOnUse" gradientTransform="matrix(112.392,0,0,112.392,2.84217e-14,56.804)"><stop offset="0" style="stop-color:rgb(121,55,239);stop-opacity:1"/><stop offset="1" style="stop-color:rgb(140,32,233);stop-opacity:1"/></linearGradient>
    </defs>
</svg>
