<?xml version="1.0" encoding="UTF-8" standalone="no"?>
<!DOCTYPE svg PUBLIC "-//W3C//DTD SVG 1.1//EN" "http://www.w3.org/Graphics/SVG/1.1/DTD/svg11.dtd">
<svg width="100%" height="100%" viewBox="0 0 357 357" version="1.1" xmlns="http://www.w3.org/2000/svg" xmlns:xlink="http://www.w3.org/1999/xlink" xml:space="preserve" xmlns:serif="http://www.serif.com/" style="fill-rule:evenodd;clip-rule:evenodd;stroke-linecap:round;stroke-linejoin:round;stroke-miterlimit:1.5;">
<style>
@keyframes float {
  from {transform: translateY(0);}
  to {transform: translateY(0.5rem);}
    }
    
    #frame {
        animation: float 7s ease 0s infinite alternate;
    }

    #puzzle {
        animation: float 3s ease 0s infinite alternate;
    }

    #magnify-base, #magnify-lens {
        animation: float 5s ease 0s infinite alternate;
    }
    </style>
    <rect id="templates" x="-222" y="-120.185" width="800" height="598.185" style="fill:none;"/>
    <clipPath id="_clip1">
        <rect x="-222" y="-120.185" width="800" height="598.185"/>
    </clipPath>
    <g clip-path="url(#_clip1)">
        <rect x="-222" y="-121.185" width="800" height="600" style="fill:rgb(12,13,13);stroke:rgb(219,37,37);stroke-width:1px;"/>
        <g id="puzzle">
            <path d="M286.673,117.097L298.131,122.826" style="fill:none;stroke:rgb(117,98,189);stroke-width:2px;stroke-linecap:butt;stroke-linejoin:miter;stroke-miterlimit:1.75;"/>
            <path d="M311.673,120.375L322.673,125.875" style="fill:none;stroke:rgb(117,98,189);stroke-width:2px;stroke-linecap:butt;stroke-linejoin:miter;stroke-miterlimit:1.75;"/>
            <path d="M269.213,207.261L269.213,201.261C269.213,195.261 274.013,188.061 280.013,185.061C286.013,182.061 290.813,184.461 290.813,190.461L290.813,196.461L306.013,188.861C310.402,186.666 314.013,181.249 314.013,176.861L314.013,160.861L320.013,157.861" style="fill:rgb(12,13,13);fill-rule:nonzero;stroke:rgb(117,98,189);stroke-width:2px;stroke-linecap:butt;stroke-linejoin:bevel;stroke-miterlimit:2;"/>
            <path d="M327.448,137.484C325.611,136.357 322.952,136.391 320.013,137.861L314.013,140.861" style="fill:rgb(12,13,13);fill-rule:nonzero;stroke:rgb(117,98,189);stroke-width:2px;stroke-linecap:butt;stroke-linejoin:bevel;stroke-miterlimit:2;"/>
            <path d="M311.673,120.375C310.223,119.65 308.218,119.758 306.013,120.861L290.013,128.861" style="fill:rgb(12,13,13);fill-rule:nonzero;stroke:rgb(117,98,189);stroke-width:2px;stroke-linecap:butt;stroke-linejoin:bevel;stroke-miterlimit:2;"/>
            <path d="M287.448,117.484C285.611,116.357 282.952,116.391 280.013,117.861C274.528,120.603 270.013,127.375 270.013,132.861L270.013,138.861L254.013,146.861C249.625,149.055 246.013,154.472 246.013,158.861L246.013,174.061L252.013,171.061C258.013,168.061 262.813,170.461 262.813,176.461C262.813,182.461 258.013,189.661 252.013,192.661L246.013,195.661L246.013,210.861C246.013,213.055 246.916,214.603 248.368,215.329" style="fill:rgb(12,13,13);fill-rule:nonzero;stroke:rgb(117,98,189);stroke-width:2px;stroke-linecap:butt;stroke-linejoin:bevel;stroke-miterlimit:2;"/>
            <path d="M270.013,138.861L281.013,144.361" style="fill:none;stroke:rgb(117,98,189);stroke-width:2px;stroke-linecap:butt;stroke-linejoin:miter;stroke-miterlimit:1.75;"/>
            <path d="M248.368,215.329L259.368,220.829" style="fill:none;stroke:rgb(117,98,189);stroke-width:2px;stroke-linecap:butt;stroke-linejoin:miter;stroke-miterlimit:1.75;"/>
            <path d="M305.477,200.129L301.813,201.961L290.813,196.461L290.813,191.414C291.405,186.117 295.018,184.716 301.798,187.398" style="fill:rgb(12,13,13);stroke:rgb(117,98,189);stroke-width:2px;stroke-linecap:butt;stroke-linejoin:miter;stroke-miterlimit:1.75;"/>
            <path d="M246.013,202.545L246.013,195.661L257.013,201.161L257.013,205.545" style="fill:none;stroke:rgb(117,98,189);stroke-width:2px;stroke-linecap:square;stroke-linejoin:miter;stroke-miterlimit:1.75;"/>
            <path d="M246.013,162.545L246.013,174.061L257.013,179.561L267.459,174.338" style="fill:rgb(12,13,13);stroke:rgb(117,98,189);stroke-width:2px;stroke-linecap:square;stroke-linejoin:miter;"/>
            <path d="M331.013,143.361L325.013,146.361L325.013,130.361C325.013,125.921 321.413,124.161 317.013,126.361L301.013,134.361L301.013,128.361C301.013,122.875 296.499,120.618 291.013,123.361C285.528,126.103 281.013,132.875 281.013,138.361L281.013,144.361L265.013,152.361C260.625,154.555 257.013,159.972 257.013,164.361L257.013,179.561L263.013,176.561C269.013,173.561 273.813,175.961 273.813,181.961C273.813,187.961 269.013,195.161 263.013,198.161L257.013,201.161L257.013,216.361C257.013,220.749 260.625,222.555 265.013,220.361L280.213,212.761L280.213,206.761C280.213,200.761 285.013,193.561 291.013,190.561C297.013,187.561 301.813,189.961 301.813,195.961L301.813,201.961L317.013,194.361C321.402,192.166 325.013,186.749 325.013,182.361L325.013,166.361L331.013,163.361C336.499,160.618 341.013,153.846 341.013,148.361C341.013,142.875 336.499,140.618 331.013,143.361Z" style="fill:rgb(12,13,13);fill-rule:nonzero;stroke:rgb(117,98,189);stroke-width:2px;stroke-linecap:butt;stroke-linejoin:bevel;stroke-miterlimit:2;"/>
            <path d="M327.448,137.484L337.673,142.597" style="fill:none;stroke:rgb(117,98,189);stroke-width:2px;stroke-linecap:butt;stroke-linejoin:miter;stroke-miterlimit:1.75;"/>
        </g>
        <g id="frame">
            <path d="M207.621,41.787L218.621,36.287L218.621,176.97L207.621,171.47L207.621,41.787Z" style="fill:url(#_Linear2);stroke:url(#_Radial3);stroke-width:2px;stroke-linecap:butt;stroke-linejoin:miter;"/>
            <path d="M55.938,252.559L55.938,258.312L66.938,263.812L71.779,261.391" style="fill:none;stroke:url(#_Radial4);stroke-width:2px;stroke-linecap:butt;stroke-linejoin:miter;"/>
            <path d="M66.938,101.128L55.938,95.628" style="fill:none;stroke:url(#_Radial5);stroke-width:2px;stroke-linecap:butt;stroke-linejoin:bevel;"/>
            <path d="M218.621,14.287L55.938,95.628L55.938,258.312L218.621,176.97L218.621,14.287Z" style="fill:none;stroke:url(#_Radial6);stroke-width:2px;stroke-linecap:butt;stroke-linejoin:miter;"/>
            <path d="M55.938,95.628L66.938,101.128L66.938,263.812L55.938,258.312L55.938,95.628Z" style="fill:url(#_Linear7);stroke:url(#_Radial8);stroke-width:2px;stroke-linecap:butt;stroke-linejoin:miter;"/>
            <path d="M207.621,30.787L66.938,101.128L66.938,241.812L207.621,171.47L207.621,30.787Z" style="fill:none;stroke:url(#_Radial9);stroke-width:2px;stroke-linecap:butt;stroke-linejoin:bevel;"/>
            <path d="M218.621,176.97L207.621,171.47" style="fill:none;stroke:url(#_Radial10);stroke-width:2px;stroke-linecap:butt;stroke-linejoin:miter;"/>
            <path d="M196.621,25.287L218.621,14.287L229.621,19.787L229.621,35.559" style="fill:rgb(12,13,13);stroke:url(#_Radial11);stroke-width:2px;stroke-linecap:butt;stroke-linejoin:miter;"/>
            <path d="M229.621,19.787L66.938,101.128L66.938,263.812L229.621,182.47L229.621,19.787ZM218.621,36.287L77.938,106.628L77.938,247.312L218.621,176.97L218.621,36.287Z" style="fill:rgb(12,13,13);stroke:url(#_Radial12);stroke-width:2px;stroke-linecap:butt;stroke-linejoin:miter;"/>
        </g>
        <g id="magnify-base">
            <path d="M155.312,332.665C160.279,330.182 168.345,330.182 173.312,332.665C178.279,335.149 178.279,339.182 173.312,341.665C168.345,344.149 160.279,344.149 155.312,341.665C150.345,339.182 150.345,335.149 155.312,332.665Z" style="fill:none;stroke:url(#_Radial13);stroke-width:2px;stroke-linecap:butt;stroke-linejoin:miter;"/>
            <path d="M151.586,337.165L151.586,280.165L177.037,280.165L177.037,337.165" style="fill:rgb(12,13,13);stroke:url(#_Radial14);stroke-width:2px;stroke-linecap:butt;stroke-linejoin:bevel;"/>
            <path d="M155.312,275.665C160.279,273.182 168.345,273.182 173.312,275.665C178.279,278.149 178.279,282.182 173.312,284.665C168.345,287.149 160.279,287.149 155.312,284.665C150.345,282.182 150.345,278.149 155.312,275.665Z" style="fill:rgb(12,13,13);stroke:url(#_Radial15);stroke-width:2px;stroke-linecap:butt;stroke-linejoin:miter;"/>
            <path d="M158.812,275.374C161.847,273.857 166.776,273.857 169.812,275.374C172.847,276.892 172.847,279.357 169.812,280.874C166.776,282.392 161.847,282.392 158.812,280.874C155.776,279.357 155.776,276.892 158.812,275.374Z" style="fill:none;stroke:url(#_Radial16);stroke-width:2px;stroke-linecap:butt;stroke-linejoin:miter;"/>
            <path d="M156.535,278.124L156.535,261.124L172.089,261.124L172.089,278.124" style="fill:rgb(12,13,13);stroke:url(#_Radial17);stroke-width:2px;stroke-linecap:butt;stroke-linejoin:bevel;"/>
        </g>
        <g id="magnify-lens">
            <path d="M139.975,162.456L125.73,169.578" style="fill:none;stroke:url(#_Radial18);stroke-width:2px;stroke-linecap:butt;stroke-linejoin:bevel;"/>
            <path d="M202.241,261.201L191.505,266.569" style="fill:none;stroke:url(#_Radial19);stroke-width:2px;stroke-linecap:butt;stroke-linejoin:bevel;"/>
            <path d="M169.812,166.374C195.2,179.068 215.812,209.986 215.812,235.374C215.812,260.762 195.2,271.068 169.812,258.374C144.424,245.68 123.812,214.762 123.812,189.374C123.812,163.986 144.424,153.68 169.812,166.374Z" style="fill:rgb(12,13,13);stroke:url(#_Radial20);stroke-width:2px;stroke-linecap:butt;stroke-linejoin:miter;"/>
            <path d="M158.812,171.874C184.2,184.568 204.812,215.486 204.812,240.874C204.812,266.262 184.2,276.568 158.812,263.874C133.424,251.18 112.812,220.262 112.812,194.874C112.812,169.486 133.424,159.18 158.812,171.874Z" style="fill:rgb(12,13,13);stroke:url(#_Radial21);stroke-width:2px;stroke-linecap:butt;stroke-linejoin:miter;"/>
            <path d="M158.812,183.914C177.555,193.286 192.772,216.111 192.772,234.854C192.772,253.598 177.555,261.206 158.812,251.834C140.069,242.463 124.852,219.637 124.852,200.894C124.852,182.151 140.069,174.543 158.812,183.914Z" style="fill:url(#_Linear22);stroke:url(#_Radial23);stroke-width:2px;stroke-linecap:butt;stroke-linejoin:miter;"/>
        </g>
        <path d="M107.623,19.125L35.1,55.386" style="fill:none;stroke:rgb(117,98,189);stroke-width:1px;stroke-linecap:butt;stroke-linejoin:miter;"/>
        <path d="M107.623,297.062L35.1,333.324" style="fill:none;stroke:rgb(117,98,189);stroke-width:1px;stroke-linecap:butt;stroke-linejoin:miter;"/>
        <circle cx="219.563" cy="309.359" r="1.542" style="fill:none;stroke:rgb(108,207,148);stroke-width:1px;stroke-linecap:butt;stroke-linejoin:miter;"/>
        <circle cx="293.513" cy="46.262" r="1.542" style="fill:none;stroke:rgb(108,207,148);stroke-width:1px;stroke-linecap:butt;stroke-linejoin:miter;"/>
        <circle cx="316.897" cy="252.485" r="2.585" style="fill:none;stroke:rgb(0,135,101);stroke-width:1px;stroke-linecap:butt;stroke-linejoin:miter;"/>
        <circle cx="16.528" cy="191.009" r="1.542" style="fill:none;stroke:rgb(117,98,189);stroke-width:1px;stroke-linecap:butt;stroke-linejoin:miter;"/>
    </g>
    <defs>
        <linearGradient id="_Linear2" x1="0" y1="0" x2="1" y2="0" gradientUnits="userSpaceOnUse" gradientTransform="matrix(-8.97285e-13,140.683,-1799.25,-1.14757e-11,218.621,36.2869)"><stop offset="0" style="stop-color:rgb(0,135,101);stop-opacity:1"/><stop offset="1" style="stop-color:rgb(12,13,13);stop-opacity:1"/></linearGradient>
        <radialGradient id="_Radial3" cx="0" cy="0" r="1" gradientUnits="userSpaceOnUse" gradientTransform="matrix(-162.683,81.3415,-81.3415,-162.683,229.621,19.7869)"><stop offset="0" style="stop-color:rgb(108,207,148);stop-opacity:1"/><stop offset="1" style="stop-color:rgb(0,135,101);stop-opacity:1"/></radialGradient>
        <radialGradient id="_Radial4" cx="0" cy="0" r="1" gradientUnits="userSpaceOnUse" gradientTransform="matrix(-162.683,81.3415,-81.3415,-162.683,229.621,19.7869)"><stop offset="0" style="stop-color:rgb(108,207,148);stop-opacity:1"/><stop offset="1" style="stop-color:rgb(0,135,101);stop-opacity:1"/></radialGradient>
        <radialGradient id="_Radial5" cx="0" cy="0" r="1" gradientUnits="userSpaceOnUse" gradientTransform="matrix(-162.683,81.3415,-81.3415,-162.683,229.621,19.7869)"><stop offset="0" style="stop-color:rgb(108,207,148);stop-opacity:1"/><stop offset="1" style="stop-color:rgb(0,135,101);stop-opacity:1"/></radialGradient>
        <radialGradient id="_Radial6" cx="0" cy="0" r="1" gradientUnits="userSpaceOnUse" gradientTransform="matrix(-162.683,81.3415,-81.3415,-162.683,229.621,19.7869)"><stop offset="0" style="stop-color:rgb(108,207,148);stop-opacity:1"/><stop offset="1" style="stop-color:rgb(0,135,101);stop-opacity:1"/></radialGradient>
        <linearGradient id="_Linear7" x1="0" y1="0" x2="1" y2="0" gradientUnits="userSpaceOnUse" gradientTransform="matrix(-1.36271e-12,162.683,-2487.32,-2.0835e-11,66.9376,101.128)"><stop offset="0" style="stop-color:rgb(0,135,101);stop-opacity:1"/><stop offset="1" style="stop-color:rgb(12,13,13);stop-opacity:1"/></linearGradient>
        <radialGradient id="_Radial8" cx="0" cy="0" r="1" gradientUnits="userSpaceOnUse" gradientTransform="matrix(-162.683,81.3415,-81.3415,-162.683,229.621,19.7869)"><stop offset="0" style="stop-color:rgb(108,207,148);stop-opacity:1"/><stop offset="1" style="stop-color:rgb(0,135,101);stop-opacity:1"/></radialGradient>
        <radialGradient id="_Radial9" cx="0" cy="0" r="1" gradientUnits="userSpaceOnUse" gradientTransform="matrix(-162.683,81.3415,-81.3415,-162.683,229.621,19.7869)"><stop offset="0" style="stop-color:rgb(108,207,148);stop-opacity:1"/><stop offset="1" style="stop-color:rgb(0,135,101);stop-opacity:1"/></radialGradient>
        <radialGradient id="_Radial10" cx="0" cy="0" r="1" gradientUnits="userSpaceOnUse" gradientTransform="matrix(-162.683,81.3415,-81.3415,-162.683,229.621,19.7869)"><stop offset="0" style="stop-color:rgb(108,207,148);stop-opacity:1"/><stop offset="1" style="stop-color:rgb(0,135,101);stop-opacity:1"/></radialGradient>
        <radialGradient id="_Radial11" cx="0" cy="0" r="1" gradientUnits="userSpaceOnUse" gradientTransform="matrix(-162.683,81.3415,-81.3415,-162.683,229.621,19.7869)"><stop offset="0" style="stop-color:rgb(108,207,148);stop-opacity:1"/><stop offset="1" style="stop-color:rgb(0,135,101);stop-opacity:1"/></radialGradient>
        <radialGradient id="_Radial12" cx="0" cy="0" r="1" gradientUnits="userSpaceOnUse" gradientTransform="matrix(-162.683,81.3415,-81.3415,-162.683,229.621,19.7869)"><stop offset="0" style="stop-color:rgb(108,207,148);stop-opacity:1"/><stop offset="1" style="stop-color:rgb(0,135,101);stop-opacity:1"/></radialGradient>
        <radialGradient id="_Radial13" cx="0" cy="0" r="1" gradientUnits="userSpaceOnUse" gradientTransform="matrix(-22.6909,23.7089,-23.7089,-22.6909,177.037,280.165)"><stop offset="0" style="stop-color:rgb(108,207,148);stop-opacity:1"/><stop offset="1" style="stop-color:rgb(0,135,101);stop-opacity:1"/></radialGradient>
        <radialGradient id="_Radial14" cx="0" cy="0" r="1" gradientUnits="userSpaceOnUse" gradientTransform="matrix(-22.6909,23.7089,-23.7089,-22.6909,177.037,280.165)"><stop offset="0" style="stop-color:rgb(108,207,148);stop-opacity:1"/><stop offset="1" style="stop-color:rgb(0,135,101);stop-opacity:1"/></radialGradient>
        <radialGradient id="_Radial15" cx="0" cy="0" r="1" gradientUnits="userSpaceOnUse" gradientTransform="matrix(-22.6909,23.7089,-23.7089,-22.6909,177.037,280.165)"><stop offset="0" style="stop-color:rgb(108,207,148);stop-opacity:1"/><stop offset="1" style="stop-color:rgb(0,135,101);stop-opacity:1"/></radialGradient>
        <radialGradient id="_Radial16" cx="0" cy="0" r="1" gradientUnits="userSpaceOnUse" gradientTransform="matrix(-22.6909,23.7089,-23.7089,-22.6909,177.037,280.165)"><stop offset="0" style="stop-color:rgb(108,207,148);stop-opacity:1"/><stop offset="1" style="stop-color:rgb(0,135,101);stop-opacity:1"/></radialGradient>
        <radialGradient id="_Radial17" cx="0" cy="0" r="1" gradientUnits="userSpaceOnUse" gradientTransform="matrix(-22.6909,23.7089,-23.7089,-22.6909,177.037,280.165)"><stop offset="0" style="stop-color:rgb(108,207,148);stop-opacity:1"/><stop offset="1" style="stop-color:rgb(0,135,101);stop-opacity:1"/></radialGradient>
        <radialGradient id="_Radial18" cx="0" cy="0" r="1" gradientUnits="userSpaceOnUse" gradientTransform="matrix(81.1522,49.9897,-49.9897,81.1522,120.346,172.066)"><stop offset="0" style="stop-color:rgb(108,207,148);stop-opacity:1"/><stop offset="1" style="stop-color:rgb(0,135,101);stop-opacity:1"/></radialGradient>
        <radialGradient id="_Radial19" cx="0" cy="0" r="1" gradientUnits="userSpaceOnUse" gradientTransform="matrix(81.1522,49.9897,-49.9897,81.1522,120.346,172.066)"><stop offset="0" style="stop-color:rgb(108,207,148);stop-opacity:1"/><stop offset="1" style="stop-color:rgb(0,135,101);stop-opacity:1"/></radialGradient>
        <radialGradient id="_Radial20" cx="0" cy="0" r="1" gradientUnits="userSpaceOnUse" gradientTransform="matrix(81.1522,49.9897,-49.9897,81.1522,120.346,172.066)"><stop offset="0" style="stop-color:rgb(108,207,148);stop-opacity:1"/><stop offset="1" style="stop-color:rgb(0,135,101);stop-opacity:1"/></radialGradient>
        <radialGradient id="_Radial21" cx="0" cy="0" r="1" gradientUnits="userSpaceOnUse" gradientTransform="matrix(81.1522,49.9897,-49.9897,81.1522,120.346,172.066)"><stop offset="0" style="stop-color:rgb(108,207,148);stop-opacity:1"/><stop offset="1" style="stop-color:rgb(0,135,101);stop-opacity:1"/></radialGradient>
        <linearGradient id="_Linear22" x1="0" y1="0" x2="1" y2="0" gradientUnits="userSpaceOnUse" gradientTransform="matrix(45.1037,73.483,-73.483,45.1037,134.803,181.861)"><stop offset="0" style="stop-color:rgb(0,135,101);stop-opacity:1"/><stop offset="0.48" style="stop-color:rgb(0,135,101);stop-opacity:0.23"/><stop offset="1" style="stop-color:rgb(0,135,101);stop-opacity:0"/></linearGradient>
        <radialGradient id="_Radial23" cx="0" cy="0" r="1" gradientUnits="userSpaceOnUse" gradientTransform="matrix(81.1522,49.9897,-49.9897,81.1522,120.346,172.066)"><stop offset="0" style="stop-color:rgb(108,207,148);stop-opacity:1"/><stop offset="1" style="stop-color:rgb(0,135,101);stop-opacity:1"/></radialGradient>
    </defs>
</svg>
